# xmcd
#
# Track frame offsets:
#	150
#	24930
#	49807
#	74494
#	92409
#	117851
#	139651
#	160637
#	181772
#	198544
#	221751
#
# Disc length: 3224 seconds
#
# Revision: 1
# Processed by: cddbd v1.5.1PL0 Copyright (c) Steve Scherf et al.
# Submitted via: CDex 1.50Beta5
#
DISCID=920c960b
DTITLE=カセットコンロス - カプリソ
DYEAR=1900
DGENRE=
TTITLE0=キミのせいだよ
TTITLE1=アドバイス
TTITLE2=いつまでも
TTITLE3=月のまぶしい夜
TTITLE4=ナイジェリア64
TTITLE5=メロディ
TTITLE6=cha cha
TTITLE7=久しぶりだもんな
TTITLE8=坂の途中で
TTITLE9=ブーガルーガ^ル
TTITLE10=あわてないで
EXTD=
EXTT0=
EXTT1=
EXTT2=
EXTT3=
EXTT4=
EXTT5=
EXTT6=
EXTT7=
EXTT8=
EXTT9=
EXTT10=
PLAYORDER=
